<svg id="Layer_1" data-name="Layer 1" xmlns="http://www.w3.org/2000/svg" viewBox="0 0 320 320"><defs><style>.cls-1{fill:#fff;}</style></defs><path class="cls-1" d="M-111-111H209V209H-111ZM63.52,179.24c44.79-2.32,84.61-26.74,109.08-75.23,2.81-5.55,1.59-7.22-4.69-6.87a119.77,119.77,0,0,1-46.65-6.77C54.09,66.85,20.61-7.88,47.51-74.25c2.44-6,1.69-7.1-4.74-6.78-1,0-2,.08-3,.19-62.13,6.72-112,59-115.68,121.28C-80.32,116-21.17,178.94,63.52,179.24Z" transform="translate(111 111)"/><path d="M63.52,179.24C-21.17,178.94-80.32,116-75.9,40.44-72.25-21.8-22.35-74.12,39.78-80.84c1-.11,2-.14,3-.19,6.43-.32,7.18.76,4.74,6.78C20.61-7.88,54.09,66.85,121.26,90.37a119.77,119.77,0,0,0,46.65,6.77c6.28-.35,7.5,1.32,4.69,6.87C148.13,152.5,108.31,176.92,63.52,179.24Z" transform="translate(111 111)"/></svg>