<svg id="Layer_1" data-name="Layer 1" xmlns="http://www.w3.org/2000/svg" viewBox="0 0 539 557"><defs><style>.cls-1{fill:#fff;}</style></defs><path class="cls-1" d="M-221-230H318V327H-221ZM8.28,193.67c-1.06-2.24-1.8-3.67-2.43-5.16-7.33-17.33-14.33-34.8-22-51.95C-23,121.48-27,105-38.54,92.24c-2.38-2.63-3.87-3.7-7.36-2.19-29.16,12.64-58.63,24.61-87.57,37.74-28.35,12.86-48.95,34.14-62.59,62.11-13.08,26.81-21.24,54.89-22.56,84.87-.5,11.33.2,13.18,10.57,17.29.93.37,1.87.71,2.8,1.07,35.58,13.68,72.8,20.16,110.4,24.64C-34,325,27.09,326.85,88.29,325.07c51.17-1.48,102.16-5.07,152.52-15,23.24-4.58,46.14-10.27,68-19.58,4.94-2.1,7.35-5.46,7.15-10.77-.08-2-.08-4-.19-6-1.34-24.89-7.41-48.66-17-71.62-12.45-30-30.74-55.6-60.38-70-31.69-15.42-64.55-28.44-97-42.4-1.07-.46-3.32-.29-3.86.44-4.42,6-9.64,11.73-12.59,18.43C113.31,135.24,102.3,162.24,91,189.11c-.56,1.33-1.27,2.6-2.23,4.54-13.61-17.52-26.83-34.52-40.37-51.93ZM-67.61-85.26c-.13,2.55-.26,4.17-.3,5.8-.21,7.86,1,15.37-6.28,22.13-3.89,3.62-4.69,11.58-5.14,17.72C-81.54-10-70.06,14.62-51.12,36.51A32.09,32.09,0,0,1-45,47c7.21,21.67,18.49,40.71,36.09,55.42,22.71,19,48.36,28.22,78,19.84,34.19-9.66,55.81-33.4,69.05-65.2,4.25-10.22,9.09-19.47,16.06-28.2C171.23,7.48,179.49-17,176-44.76c-.83-6.56-2.89-12.58-8.11-17.25a9.11,9.11,0,0,1-2.72-5.64c-.36-5.69-.13-11.42-.13-18.07C127-70.22,88.74-61.47,48.67-61.86S-29.68-70.22-67.61-85.26Zm253.69-29.51a30.77,30.77,0,0,0,4.21-19.39,58.43,58.43,0,0,0-13.06-32C143.63-207.68,99-227.38,46.49-228.18c-39.76-.6-74.56,15.35-105.5,39.74a103.57,103.57,0,0,0-27.2,31.65c-5.23,9.57-8.13,19.75-6.78,30.72.47,3.79,2,7.45,3.18,11.7C2.73-159.61,94.38-159.56,186.08-114.77Zm-6.86,7.6c-44.64-22.06-91.55-33.89-141.27-32C-4.28-137.56-44.12-126-83.61-107.23-43.37-88-2.66-76.51,40.52-75.14,89.43-73.59,135.33-85.82,179.22-107.17Z" transform="translate(221 230)"/><path d="M8.28,193.67,48.4,141.72c13.54,17.41,26.76,34.41,40.37,51.93,1-1.94,1.67-3.21,2.23-4.54,11.3-26.87,22.31-53.87,34.06-80.54,2.95-6.7,8.17-12.43,12.59-18.43.54-.73,2.79-.9,3.86-.44,32.4,14,65.26,27,97,42.4,29.64,14.42,47.93,40,60.38,70,9.54,23,15.61,46.73,17,71.62.11,2,.11,4,.19,6,.2,5.31-2.21,8.67-7.15,10.77-21.88,9.31-44.78,15-68,19.58-50.36,9.91-101.35,13.5-152.52,15-61.2,1.78-122.3-.05-183.14-7.3-37.6-4.48-74.82-11-110.4-24.64-.93-.36-1.87-.7-2.8-1.07-10.37-4.11-11.07-6-10.57-17.29,1.32-30,9.48-58.06,22.56-84.87,13.64-28,34.24-49.25,62.59-62.11,28.94-13.13,58.41-25.1,87.57-37.74,3.49-1.51,5-.44,7.36,2.19C-27,105-23,121.48-16.19,136.56c7.71,17.15,14.71,34.62,22,51.95C6.48,190,7.22,191.43,8.28,193.67Zm240-30.87c-.09-4-2.73-7.24-7.25-9.28q-21.85-9.86-43.66-19.81c-14.54-6.61-29.05-13.33-43.66-19.79-7.35-3.24-14.41.76-15.23,8.26-.55,5,2.09,9.31,7.44,11.75q25.67,11.7,51.36,23.3c11.82,5.37,23.59,10.83,35.45,16.12C240.59,176.84,248.27,172.07,248.31,162.8ZM-41.43,123.92c-.12-8.76-7.52-13.45-15.27-10q-43.93,19.69-87.72,39.75c-6.26,2.86-8.47,9.18-5.7,15,2.58,5.44,8.14,7.29,14.42,4.6,6.12-2.63,12.15-5.42,18.21-8.18,22.71-10.33,45.39-20.73,68.14-31C-44.47,131.91-41.49,128.68-41.43,123.92Z" transform="translate(221 230)"/><path d="M-67.61-85.26c37.93,15,76.35,23,116.28,23.4S127-70.22,165.06-85.72c0,6.65-.23,12.38.13,18.07A9.11,9.11,0,0,0,167.91-62c5.22,4.67,7.28,10.69,8.11,17.25,3.47,27.72-4.79,52.24-21.86,73.65-7,8.73-11.81,18-16.06,28.2-13.24,31.8-34.86,55.54-69,65.2-29.6,8.38-55.25-.87-78-19.84C-26.51,87.74-37.79,68.7-45,47a32.09,32.09,0,0,0-6.12-10.52C-70.06,14.62-81.54-10-79.33-39.61c.45-6.14,1.25-14.1,5.14-17.72,7.24-6.76,6.07-14.27,6.28-22.13C-67.87-81.09-67.74-82.71-67.61-85.26Z" transform="translate(221 230)"/><path d="M186.08-114.77c-91.7-44.79-183.35-44.84-275.89.4-1.19-4.25-2.71-7.91-3.18-11.7-1.35-11,1.55-21.15,6.78-30.72A103.57,103.57,0,0,1-59-188.44c30.94-24.39,65.74-40.34,105.5-39.74,52.46.8,97.14,20.5,130.74,62.06a58.43,58.43,0,0,1,13.06,32A30.77,30.77,0,0,1,186.08-114.77ZM48.78-223.36a30.25,30.25,0,0,0-30.39,30,30.34,30.34,0,0,0,29.86,30.5,30.5,30.5,0,0,0,30.68-30.27C79.11-209.59,65.48-223.24,48.78-223.36Z" transform="translate(221 230)"/><path d="M179.22-107.17c-43.89,21.35-89.79,33.58-138.7,32C-2.66-76.51-43.37-88-83.61-107.23-44.12-126-4.28-137.56,38-139.17,87.67-141.06,134.58-129.23,179.22-107.17Z" transform="translate(221 230)"/><path class="cls-1" d="M248.31,162.8c0,9.27-7.72,14-15.55,10.55-11.86-5.29-23.63-10.75-35.45-16.12q-25.68-11.65-51.36-23.3c-5.35-2.44-8-6.75-7.44-11.75.82-7.5,7.88-11.5,15.23-8.26,14.61,6.46,29.12,13.18,43.66,19.79s29.09,13.24,43.66,19.81C245.58,155.56,248.22,158.79,248.31,162.8Z" transform="translate(221 230)"/><path class="cls-1" d="M-41.43,123.92c-.06,4.76-3,8-7.92,10.19-22.75,10.25-45.43,20.65-68.14,31-6.06,2.76-12.09,5.55-18.21,8.18-6.28,2.69-11.84.84-14.42-4.6-2.77-5.8-.56-12.12,5.7-15q43.8-20,87.72-39.75C-48.95,110.47-41.55,115.16-41.43,123.92Z" transform="translate(221 230)"/><path class="cls-1" d="M48.78-223.36c16.7.12,30.33,13.77,30.15,30.19A30.5,30.5,0,0,1,48.25-162.9a30.34,30.34,0,0,1-29.86-30.5A30.25,30.25,0,0,1,48.78-223.36Z" transform="translate(221 230)"/></svg>