<svg id="Layer_1" data-name="Layer 1" xmlns="http://www.w3.org/2000/svg" viewBox="0 0 225 225"><defs><style>.cls-1{fill:#fff;}</style></defs><path class="cls-1" d="M51,161H47c-10.2-7.07-21.1-13.34-30.49-21.37-30.92-26.43-48-61.08-56-100.31-3.43-16.85-4.92-34.11-7.09-51.2a10.15,10.15,0,0,1,9.62-11.74C-25.35-24.43-15.74-29.92-6-35.3,8.46-43.35,22.76-51.77,37.3-59.76c5.79-3.18,12-5.05,18.52-1.55,11.56,6.18,23.28,12,34.67,18.52,14.09,8,27.33,17.65,44.24,19.51,6.63.73,9.65,6.11,8.75,12.78-.55,4.09-1,8.21-1.38,12.33-2.17,26.44-7.53,52.07-17.87,76.68-10.57,25.18-25.93,46.7-47,64C69,149.23,59.77,154.85,51,161ZM48.37-20.26C35.57-20.21,26.27-12.2,25,.2a40.86,40.86,0,0,0,8.22,30c5.35,7,3.9,11.15-4.07,14.66A95.29,95.29,0,0,0,9.2,56.67c-8.65,6.7-6.66,18,3.37,22.23a34.68,34.68,0,0,0,7.12,2.18,148.82,148.82,0,0,0,49,1.34,93.69,93.69,0,0,0,18.1-4.81C91,76.1,92.71,72.3,93,67.7c.33-5.68-2.44-9.83-6.64-12.56a176.45,176.45,0,0,0-20-11c-6.5-3.11-7.76-6.75-3.47-12.6A48.6,48.6,0,0,0,72.46,7.37C74.05-8.51,63.75-20.33,48.37-20.26Z" transform="translate(64 64)"/><path d="M51,161c8.77-6.15,18-11.77,26.23-18.54,21.07-17.25,36.43-38.77,47-63.95,10.34-24.61,15.7-50.24,17.87-76.68.34-4.12.83-8.24,1.38-12.33.9-6.67-2.12-12-8.75-12.78-16.91-1.86-30.15-11.49-44.24-19.51C79.1-49.27,67.38-55.13,55.82-61.31c-6.53-3.5-12.73-1.63-18.52,1.55C22.76-51.77,8.46-43.35-6-35.3c-9.69,5.38-19.3,10.87-30.88,11.68a10.15,10.15,0,0,0-9.62,11.74c2.17,17.09,3.66,34.35,7.09,51.2,8,39.23,25.05,73.88,56,100.31,9.39,8,20.29,14.3,30.49,21.37H-64V-64H161V161Z" transform="translate(64 64)"/><path d="M48.37-20.26C63.75-20.33,74.05-8.51,72.46,7.37A48.6,48.6,0,0,1,62.9,31.59c-4.29,5.85-3,9.49,3.47,12.6a176.45,176.45,0,0,1,20,11c4.2,2.73,7,6.88,6.64,12.56-.27,4.6-2,8.4-6.18,9.91a93.69,93.69,0,0,1-18.1,4.81,148.82,148.82,0,0,1-49-1.34,34.68,34.68,0,0,1-7.12-2.18c-10-4.22-12-15.53-3.37-22.23A95.29,95.29,0,0,1,29.14,44.83c8-3.51,9.42-7.67,4.07-14.66A40.86,40.86,0,0,1,25,.2C26.27-12.2,35.57-20.21,48.37-20.26Z" transform="translate(64 64)"/></svg>