<svg id="Layer_1" data-name="Layer 1" xmlns="http://www.w3.org/2000/svg" viewBox="0 0 360 360"><defs><style>.cls-1{fill:#fff;}</style></defs><path class="cls-1" d="M229,229H-131V-131H229ZM44.35-32.49C-1.21-32.47-38.12,4-38.12,49.08s37.06,81.66,82.45,81.78c45,.12,82.4-36.73,82.43-81.26A81.93,81.93,0,0,0,44.35-32.49ZM171.79,36.15c-3.83,0-7.66-.08-11.49,0-6.92.18-12,4.9-12.29,11.31a11.9,11.9,0,0,0,10.91,12.21,227.8,227.8,0,0,0,25.47,0c6.24-.33,11.42-6.43,11.25-12.09-.17-6-5.76-11.24-12.36-11.41C179.45,36.09,175.62,36.17,171.79,36.15Zm-255,25.75v0c4,0,8,.12,12,0A11.76,11.76,0,0,0-59.55,51.64c.73-5.7-2.91-12-8.89-12.56a169.53,169.53,0,0,0-29.29,0c-6,.53-9.75,6.9-9.07,12.49.74,6,5.56,10.18,12.13,10.33C-90.84,62-87,61.9-83.18,61.9ZM141-61.13c-1.74.8-4.91,1.46-7,3.33-6.16,5.57-12,11.47-17.73,17.54a11.48,11.48,0,0,0,.43,15.83c4.33,4.25,11.35,4.76,15.86.6,6.36-5.85,12.51-12,18.46-18.21,3.12-3.27,3.59-7.48,1.71-11.64C150.72-58.16,147-60.4,141-61.13ZM-26.44-32c-.58-1.45-.94-4.26-2.51-5.89-6.45-6.68-13-13.31-20-19.32-4.34-3.69-10.72-2.28-14.81,2.15s-4.66,10.18-.71,14.46C-58.34-33.95-51.78-27.57-45-21.46c3.68,3.32,8.27,3,12.61.71C-28.26-22.91-26.85-26.66-26.44-32ZM54.7-76.92h0c0-3.49.05-7,0-10.47-.14-7.42-4.61-12.62-11.08-13-6.29-.35-11.75,4.11-12.19,11.25a190.24,190.24,0,0,0,.16,25.38c.46,6.41,5.9,10.45,12.06,10.15s10.67-4.85,11-11.37C54.86-68.93,54.7-72.93,54.7-76.92ZM-24.73,132.6c-.26-6.54-2.58-10.15-7-12.3-4.75-2.32-9.23-1.37-12.91,2.1-5.8,5.47-11.42,11.14-16.92,16.91-4.88,5.12-4.67,11.79.19,16.44s11.46,4.71,16.52-.16c5.63-5.41,11.2-10.91,16.48-16.66C-26.46,136.86-25.48,134-24.73,132.6Zm180,11.48c-.43-1-.8-3.82-2.37-5.46-6.31-6.59-12.73-13.14-19.63-19.08-4.56-3.92-11-2.6-15.18,2-4,4.46-4.49,10.51-.33,14.91,6,6.39,12.44,12.48,19,18.36,3.51,3.16,7.92,3.26,12.14,1.12S155.27,150.29,155.29,144.08ZM57.2,175.21h0c0-4.15.18-8.31,0-12.45a11.71,11.71,0,0,0-23.37-.09c-.28,8.3-.26,16.62,0,24.92a11.57,11.57,0,0,0,11.94,11,11.29,11.29,0,0,0,11.42-10.89C57.39,183.53,57.2,179.37,57.2,175.21Z" transform="translate(131 131)"/><path d="M44.35-32.49A81.93,81.93,0,0,1,126.76,49.6c0,44.53-37.41,81.38-82.43,81.26C-1.06,130.74-38.11,94-38.12,49.08S-1.21-32.47,44.35-32.49Z" transform="translate(131 131)"/><path d="M171.79,36.16c3.83,0,7.66-.07,11.49,0,6.6.17,12.19,5.39,12.36,11.41.17,5.66-5,11.76-11.25,12.09a227.8,227.8,0,0,1-25.47,0A11.9,11.9,0,0,1,148,47.48c.3-6.41,5.37-11.13,12.29-11.31C164.13,36.07,168,36.15,171.79,36.16Z" transform="translate(131 131)"/><path d="M-83.18,61.9c-3.83,0-7.66.07-11.49,0-6.57-.15-11.39-4.3-12.13-10.33-.68-5.59,3.06-12,9.07-12.49a169.53,169.53,0,0,1,29.29,0c6,.51,9.62,6.86,8.89,12.56A11.76,11.76,0,0,1-71.2,61.89c-4,.15-8,0-12,0Z" transform="translate(131 131)"/><path d="M141-61.13c6,.73,9.74,3,11.76,7.45,1.88,4.16,1.41,8.37-1.71,11.64-5.95,6.26-12.1,12.36-18.46,18.21-4.51,4.16-11.53,3.65-15.86-.6a11.48,11.48,0,0,1-.43-15.83c5.68-6.07,11.57-12,17.73-17.54C136.07-59.67,139.24-60.33,141-61.13Z" transform="translate(131 131)"/><path d="M-26.44-32c-.41,5.38-1.82,9.13-6,11.29-4.34,2.26-8.93,2.61-12.61-.71-6.77-6.11-13.33-12.49-19.51-19.18-4-4.28-3.27-10.15.71-14.46S-53.34-60.94-49-57.25c7,6,13.6,12.64,20.05,19.32C-27.38-36.3-27-33.49-26.44-32Z" transform="translate(131 131)"/><path d="M54.7-76.92c0,4,.16,8,0,12-.32,6.52-4.82,11.06-11,11.37s-11.6-3.74-12.06-10.15a190.24,190.24,0,0,1-.16-25.38c.44-7.14,5.9-11.6,12.19-11.25,6.47.35,10.94,5.55,11.08,13,.06,3.49,0,7,0,10.47Z" transform="translate(131 131)"/><path d="M-24.73,132.6c-.75,1.35-1.73,4.26-3.63,6.33-5.28,5.75-10.85,11.25-16.48,16.66-5.06,4.87-11.64,4.82-16.52.16s-5.07-11.32-.19-16.44c5.5-5.77,11.12-11.44,16.92-16.91,3.68-3.47,8.16-4.42,12.91-2.1C-27.31,122.45-25,126.06-24.73,132.6Z" transform="translate(131 131)"/><path d="M155.29,144.08c0,6.21-2.17,9.75-6.39,11.88s-8.63,2-12.14-1.12c-6.54-5.88-12.93-12-19-18.36-4.16-4.4-3.7-10.45.33-14.91,4.17-4.63,10.62-5.95,15.18-2,6.9,5.94,13.32,12.49,19.63,19.08C154.49,140.26,154.86,143,155.29,144.08Z" transform="translate(131 131)"/><path d="M57.2,175.21c0,4.16.19,8.32,0,12.46a11.29,11.29,0,0,1-11.42,10.89,11.57,11.57,0,0,1-11.94-11c-.25-8.3-.27-16.62,0-24.92a11.71,11.71,0,0,1,23.37.09c.22,4.14,0,8.3,0,12.45Z" transform="translate(131 131)"/></svg>