<svg id="Layer_1" data-name="Layer 1" xmlns="http://www.w3.org/2000/svg" viewBox="0 0 840 897"><defs><style>.cls-1{fill:#fff;}</style></defs><path class="cls-1" d="M469,497H-371V-400H469ZM44.23,364.33v.41c60.65,0,121.31.14,182-.12A280.25,280.25,0,0,0,261,361.86c7.94-1,17.89-13.19,17.87-20.43q-.31-150.48-.69-300.95c-.07-23.71-2.1-47-9.4-70-25.45-80.09-100-147.93-188.46-157.87-24.79-2.79-49.68-4.06-74.6,1.28C-66.33-170.66-119.79-130.38-155.1-66.17c-16.34,29.71-25.5,61.57-25.21,96.06.37,43.65-.66,87.31-.79,131q-.22,80,.12,160a164.92,164.92,0,0,0,2,23.88c1.53,10.15,13,19.6,23.19,19.6Q-55.75,364.35,44.23,364.33ZM57.71,395v-.38c-48,0-96-.14-144,0q-95.24.36-190.47,1.19c-13.57.11-22,6.86-26.27,19.59-6.4,19.23,6.89,38.27,27.06,38.79,5.83.15,11.66.48,17.49.49,74.82.21,149.65.54,224.47.51q173.24-.09,346.47-.65c27.32-.09,54.64-.86,82-1.67a22.2,22.2,0,0,0,11.05-3.64c12.23-8.14,13.27-20.44,10.8-33.37C414,404.12,402.07,395,390.18,395Q223.94,395,57.71,395ZM380,55.87h53a16.62,16.62,0,0,0,15.77-12.95c1.71-8-6.17-17.91-14.24-17.91-35.82,0-71.65.26-107.46-.2-8-.11-12,4-15,9.84-4.62,8.93,3.09,21.21,13,21.22Q352.53,55.89,380,55.87Zm-662.18,0c17.66,0,35.33-.46,53,.2,8,.3,12-4,15.1-9.79,4.78-9.13-3-21.29-13.35-21.29q-54,0-108,0c-7.21,0-14.59,6.57-15.52,13.79-1,8,6.79,17.09,14.78,17.09Zm61.18-302c-7.23.29-12,1.59-14.6,6.64s-3,10.6.48,15.66a48.32,48.32,0,0,0,5.32,6.6q30.22,30.59,60.58,61a173,173,0,0,0,14.15,12.64c5.86,4.69,12.58,4.13,18.08-1,6.27-5.87,7.18-13.44,1.18-19.89q-21.25-22.87-43.33-45c-10.91-11-22.18-21.63-33.58-32.11C-215.37-243.95-219.19-245.12-221-246.08Zm540.71,0c-4.5-.21-8.51,3.56-12.35,7.2-10.4,9.85-20.76,19.76-30.8,30-14.6,14.84-29.1,29.8-43.26,45.06-5.5,5.94-4.56,12.84,1.24,18.71s12.3,6.41,18.76,1.44a87.45,87.45,0,0,0,8.34-7.16q31.58-31.34,63-62.83A81.41,81.41,0,0,0,333.26-224c3.42-4.84,3-10.17.44-15.2S326.49-245.84,319.72-246.07ZM64.44-290.53c0-17.48-.42-35,.18-52.43.29-8.42-3.78-11.91-10.39-15.13-8.87-4.32-20.6,3.54-20.61,13.27q0,54,0,107.89a16.62,16.62,0,0,0,13,15.69c8.4,1.61,17.82-6.23,17.82-14.84Z" transform="translate(371 400)"/><path d="M44.23,364.33q-100,0-200,0c-10.16,0-21.66-9.45-23.19-19.6a164.92,164.92,0,0,1-2-23.88q-.28-80-.12-160c.13-43.66,1.16-87.32.79-131-.29-34.49,8.87-66.35,25.21-96.06C-119.79-130.38-66.33-170.66,5.73-186.1c24.92-5.34,49.81-4.07,74.6-1.28,88.44,9.94,163,77.78,188.46,157.87,7.3,23,9.33,46.28,9.4,70q.48,150.47.69,301c0,7.24-9.93,19.4-17.87,20.43a280.25,280.25,0,0,1-34.82,2.76c-60.65.26-121.31.12-182,.12ZM172,144.1H171c0-36,.17-72-.09-108-.1-12.5-1.19-25.07-6-36.81C146.18-46.24,112.94-73.9,63.94-81.62a62.86,62.86,0,0,0-17.86-.08c-7.17,1-12.24,7.53-12.39,14.32-.16,7,4.46,12.82,11.85,14.74a23.59,23.59,0,0,0,5.43.73c18.08.34,34.35,6.33,49.05,16.46C123.31-19.39,138.1,2,139.8,31.05c.58,9.82,1.1,19.65,1.13,29.47q.27,97.24.3,194.48a16.42,16.42,0,0,0,11.92,15.54c8.78,2.39,18.87-5.33,18.87-14.45Z" transform="translate(371 400)"/><path d="M57.71,395q166.23,0,332.47,0c11.89,0,23.84,9.12,26.1,20.91,2.47,12.93,1.43,25.23-10.8,33.37a22.2,22.2,0,0,1-11.05,3.64c-27.32.81-54.64,1.58-82,1.67q-173.24.54-346.47.65c-74.82,0-149.65-.3-224.47-.51-5.83,0-11.66-.34-17.49-.49-20.17-.52-33.46-19.56-27.06-38.79,4.23-12.73,12.7-19.48,26.27-19.59q95.24-.81,190.47-1.19c48-.18,96,0,144,0Z" transform="translate(371 400)"/><path d="M380,55.87q-27.5,0-55,0c-9.91,0-17.62-12.29-13-21.22,3-5.87,7-9.95,15-9.84,35.81.46,71.64.19,107.46.2,8.07,0,16,9.93,14.24,17.91A16.62,16.62,0,0,1,433,55.87Z" transform="translate(371 400)"/><path d="M-282.17,55.91h-54c-8,0-15.8-9-14.78-17.09C-350,31.6-342.62,25-335.41,25q54,0,108,0c10.31,0,18.13,12.16,13.35,21.29-3.06,5.84-7.05,10.09-15.1,9.79C-246.84,55.45-264.51,55.91-282.17,55.91Z" transform="translate(371 400)"/><path d="M-221-246.08c1.8,1,5.62,2.13,8.28,4.57,11.4,10.48,22.67,21.12,33.58,32.11q22,22.16,43.33,45c6,6.45,5.09,14-1.18,19.89-5.5,5.13-12.22,5.69-18.08,1a173,173,0,0,1-14.15-12.64q-30.4-30.39-60.58-61a48.32,48.32,0,0,1-5.32-6.6c-3.49-5.06-3.12-10.47-.48-15.66S-228.22-245.79-221-246.08Z" transform="translate(371 400)"/><path d="M319.72-246.07c6.77.23,11.46,1.81,14,6.82s3,10.36-.44,15.2a81.41,81.41,0,0,1-8.61,10.37q-31.39,31.52-63,62.83a87.45,87.45,0,0,1-8.34,7.16c-6.46,5-13,4.4-18.76-1.44s-6.74-12.77-1.24-18.71c14.16-15.26,28.66-30.22,43.26-45.06,10-10.21,20.4-20.12,30.8-30C311.21-242.51,315.22-246.28,319.72-246.07Z" transform="translate(371 400)"/><path d="M64.44-290.53v54.45c0,8.61-9.42,16.45-17.82,14.84a16.62,16.62,0,0,1-13-15.69q0-53.94,0-107.89c0-9.73,11.74-17.59,20.61-13.27,6.61,3.22,10.68,6.71,10.39,15.13C64-325.5,64.44-308,64.44-290.53Z" transform="translate(371 400)"/><path class="cls-1" d="M172,144.1v112c0,9.12-10.09,16.84-18.87,14.45A16.42,16.42,0,0,1,141.23,255q-.12-97.24-.3-194.48c0-9.82-.55-19.65-1.13-29.47C138.1,2,123.31-19.39,100-35.45c-14.7-10.13-31-16.12-49-16.46a23.59,23.59,0,0,1-5.43-.73c-7.39-1.92-12-7.73-11.85-14.74.15-6.79,5.22-13.35,12.39-14.32a62.86,62.86,0,0,1,17.86.08c49,7.72,82.24,35.38,100.93,80.94,4.81,11.74,5.9,24.31,6,36.81.26,36,.09,72,.09,108Z" transform="translate(371 400)"/></svg>