<svg id="Layer_1" data-name="Layer 1" xmlns="http://www.w3.org/2000/svg" viewBox="0 0 900 900"><defs><style>.cls-1{fill:#fff;}</style></defs><path class="cls-1" d="M-401,499V-401H499V499ZM124-138.79c0-12.25,0-23.89,0-35.52.15-43.53-33.29-76.9-76.76-76.71-24.5.1-49,0-73.49,0-75.33,0-150.65-.1-226,.1-19.81.06-37,7.49-51.16,21.36-15.82,15.5-22.76,34.62-22.72,56.66q.18,105,.05,210c0,66.5-.31,133,.2,199.48.24,30.82,15.07,53.41,42.56,67.57,10.59,5.46,22,7.07,33.9,7.51.51,1.76,1,3.34,1.42,4.92a94,94,0,0,0,101.68,69.38C-109,381.84-76.35,353.75-67,317.45c1.22-4.75,3.22-6,8-6q109.23.38,218.46.38c1.3,0,2.59.16,3.9.24,1.06,3.75,1.9,7.29,3.06,10.71a94.21,94.21,0,0,0,95.33,63.46c37.52-2.48,73-29.92,83.22-65.84,2.4-8.44,2.4-8.44,10.68-9.2,39.18-3.59,68.4-35.65,68.41-75.09,0-44.83-.13-89.66.1-134.49a48.41,48.41,0,0,0-8.58-28.09c-42.34-63.35-84.81-126.62-126.7-190.26-10.08-15.31-23-22.36-41.16-22.16-39,.42-78,.13-117,.13Z" transform="translate(401 401)"/><path d="M124-138.79h6.72c39,0,78,.29,117-.13,18.17-.2,31.08,6.85,41.16,22.16C330.76-53.12,373.23,10.15,415.57,73.5a48.41,48.41,0,0,1,8.58,28.09c-.23,44.83-.09,89.66-.1,134.49,0,39.44-29.23,71.5-68.41,75.09-8.28.76-8.28.76-10.68,9.2-10.21,35.92-45.7,63.36-83.22,65.84a94.21,94.21,0,0,1-95.33-63.46c-1.16-3.42-2-7-3.06-10.71-1.31-.08-2.6-.24-3.9-.24Q50.22,311.66-59,311.42c-4.8,0-6.8,1.28-8,6-9.32,36.3-42,64.39-79.26,68.47A94,94,0,0,1-248,316.54c-.42-1.58-.91-3.16-1.42-4.92-11.86-.44-23.31-2.05-33.9-7.51-27.49-14.16-42.32-36.75-42.56-67.57-.51-66.49-.19-133-.2-199.48q0-105-.05-210c0-22,6.9-41.16,22.72-56.66,14.16-13.87,31.35-21.3,51.16-21.36,75.33-.2,150.65-.1,226-.1,24.49,0,49,.11,73.49,0,43.47-.19,76.91,33.18,76.76,76.71C124-162.68,124-151,124-138.79ZM-238.86,38.5l100.55,99.39L36.3-36.73-16.4-89.4-138.8,33c-15.95-15.85-31.87-31.69-47.95-47.66ZM331,48.84c-1.1-1.77-1.75-2.9-2.47-4Q293.81-7.25,259.13-59.41c-2-3-4-4.15-7.63-4.13-28.16.14-56.33.07-84.49.09-1.62,0-3.24.17-5,.28v112ZM254.92,330.07a37.45,37.45,0,0,0,37.86-37c.26-20.1-16.63-37.53-36.72-37.88A37.49,37.49,0,0,0,217.93,292C217.66,313.21,233.78,329.83,254.92,330.07Zm-374.86-36.91a37.38,37.38,0,0,0-37.41-37.94c-20.06-.09-37.24,16.94-37.43,37.11a37.44,37.44,0,0,0,36.63,37.73C-136.93,330.39-120.16,314.2-119.94,293.16Z" transform="translate(401 401)"/><path class="cls-1" d="M-238.86,38.5l52.11-53.14c16.08,16,32,31.81,47.95,47.66L-16.4-89.4,36.3-36.73-138.31,137.89Z" transform="translate(401 401)"/><path class="cls-1" d="M331,48.84H162v-112c1.81-.11,3.43-.28,5-.28,28.16,0,56.33.05,84.49-.09,3.59,0,5.64,1.13,7.63,4.13q34.56,52.23,69.4,104.27C329.25,45.94,329.9,47.07,331,48.84Z" transform="translate(401 401)"/><path class="cls-1" d="M254.92,330.07c-21.14-.24-37.26-16.86-37-38.12a37.49,37.49,0,0,1,38.13-36.73c20.09.35,37,17.78,36.72,37.88A37.45,37.45,0,0,1,254.92,330.07Z" transform="translate(401 401)"/><path class="cls-1" d="M-119.94,293.16c-.22,21-17,37.23-38.21,36.9a37.44,37.44,0,0,1-36.63-37.73c.19-20.17,17.37-37.2,37.43-37.11A37.38,37.38,0,0,1-119.94,293.16Z" transform="translate(401 401)"/></svg>