<svg id="Layer_1" data-name="Layer 1" xmlns="http://www.w3.org/2000/svg" viewBox="0 0 237.61 237.61"><defs><style>.cls-1{fill:#fff;}</style></defs><path class="cls-1" d="M173.52,90.7V-64.77H411.13V172.84H173.52V97.19c.11.2.3.38.33.59a24.76,24.76,0,0,0,25.47,20.69c1.74-.06,3.48,0,5.27,0v37.58a52.3,52.3,0,0,0-5.61,0,5.41,5.41,0,0,0-4.7,4.2,5.22,5.22,0,0,0,2.07,5.93,7.28,7.28,0,0,0,3.6,1.31c7.1.12,14.21.06,21.31,0a5.84,5.84,0,0,0,1.59-.28,6,6,0,0,0,4.2-6,5.83,5.83,0,0,0-5-5.26,20.78,20.78,0,0,0-3.7-.1c-1.52.1-2-.48-2-2,0-11.29,0-22.59,0-33.88,0-.45.09-.89.14-1.43H367.65v37.28c-1.51,0-2.89,0-4.26,0-3.7.13-6.26,2.49-6.29,5.75a5.94,5.94,0,0,0,6.2,5.87q10.31.13,20.61,0c3.63,0,6.25-2.63,6.25-5.84s-2.58-5.66-6.26-5.79c-1.42-.05-2.84,0-4.29,0V118.46c2.12,0,4.11,0,6.1,0a25.32,25.32,0,0,0,12.19-3.09,24.35,24.35,0,0,0-8.61-45.56c-1.53-.17-1.88-.74-1.86-2.17.06-5.88.07-11.76,0-17.63,0-3.82-2.45-6.23-6.25-6.25q-12.27-.06-24.54,0c-4,0-6.33,2.25-6.4,6.3-.08,4.94,0,9.9,0,14.85v4.42H262.55V66.89c0-7.73-.06-15.47.07-23.2a6,6,0,0,1,1.45-3.61,28,28,0,0,0-4.48-41.6c-3.72-2.66-4.53-7.22-7.27-11.12h3.23c6,0,12,0,18.07,0,4.21,0,6.39-2.22,6.52-6.39,0-.67.1-1.33.14-1.95h37.87v9.82h-2.89c-3.78.05-7.58-.11-11.34.21A12.63,12.63,0,0,0,293,6.5c1.82,4.66,4.34,9,6.48,13.57,1.55,3.26,2.94,6.63,7.4,6.51v4.53c0,1.47,0,2.94,0,4.4.08,3.84,2.36,6.31,6.17,6.35q12.39.12,24.78,0c3.81,0,6.14-2.52,6.18-6.33,0-2.92,0-5.85,0-7.74,2.26-1.91,4.43-3,5.43-4.72,2.83-4.95,5.36-10.1,7.7-15.3,3.47-7.74.12-15.63-7.66-18.2a20.52,20.52,0,0,0-5.93-.71c-4.44-.1-8.89,0-13.58,0,0-3.31.06-6.31,0-9.31a2.58,2.58,0,0,1,1.62-2.66,15.3,15.3,0,0,0,8-15c-1.11-8.64-7.28-14.14-16-14.17-13.51,0-27,0-40.53,0h-2.62c-.81-5.33-2.53-7.13-6.87-7.13q-30-.06-60,0c-8.14,0-14.95,3.08-19.63,9.91-5.63,8.23-5.85,16.89-1.12,25.6,7.35,13.5,14.81,26.93,22.18,40.42a9.59,9.59,0,0,1,.91,3.24c.47,3.27.61,6.6,1.32,9.82a4.28,4.28,0,0,1-.68,4c-9.09,12.11-18.1,24.28-27.2,36.39a20,20,0,0,1-3.23,2.83,93.74,93.74,0,0,0-7.14,6.17C175.8,82.12,174.69,86.46,173.52,90.7Z" transform="translate(-173.52 64.77)"/><path d="M173.52,90.7c1.17-4.24,2.28-8.58,5.4-11.84a93.74,93.74,0,0,1,7.14-6.17,20,20,0,0,0,3.23-2.83c9.1-12.11,18.11-24.28,27.2-36.39a4.28,4.28,0,0,0,.68-4c-.71-3.22-.85-6.55-1.32-9.82a9.59,9.59,0,0,0-.91-3.24C207.57,2.93,200.11-10.5,192.76-24c-4.73-8.71-4.51-17.37,1.12-25.6,4.68-6.83,11.49-9.88,19.63-9.91q30-.09,60,0c4.34,0,6.06,1.8,6.87,7.13H283c13.51,0,27,0,40.53,0,8.76,0,14.93,5.53,16,14.17a15.3,15.3,0,0,1-8,15,2.58,2.58,0,0,0-1.62,2.66c.09,3,0,6,0,9.31,4.69,0,9.14-.07,13.58,0a20.52,20.52,0,0,1,5.93.71c7.78,2.57,11.13,10.46,7.66,18.2-2.34,5.2-4.87,10.35-7.7,15.3-1,1.74-3.17,2.81-5.43,4.72,0,1.89,0,4.82,0,7.74,0,3.81-2.37,6.29-6.18,6.33q-12.39.12-24.78,0c-3.81,0-6.09-2.51-6.17-6.35,0-1.46,0-2.93,0-4.4V26.58c-4.46.12-5.85-3.25-7.4-6.51-2.14-4.53-4.66-8.91-6.48-13.57A12.63,12.63,0,0,1,303.92-11c3.76-.32,7.56-.16,11.34-.21h2.89V-21H280.28c0,.62-.12,1.28-.14,1.95-.13,4.17-2.31,6.36-6.52,6.39-6,.05-12.05,0-18.07,0h-3.23c2.74,3.9,3.55,8.46,7.27,11.12a28,28,0,0,1,4.48,41.6,6,6,0,0,0-1.45,3.61c-.13,7.73-.07,15.47-.07,23.2v2.44h87.67V64.91c0-4.95-.06-9.91,0-14.85.07-4.05,2.38-6.28,6.4-6.3q12.27-.06,24.54,0c3.8,0,6.21,2.43,6.25,6.25.07,5.87.06,11.75,0,17.63,0,1.43.33,2,1.86,2.17a24.35,24.35,0,0,1,8.61,45.56,25.32,25.32,0,0,1-12.19,3.09c-2,0-4,0-6.1,0v37.47c1.45,0,2.87,0,4.29,0,3.68.13,6.26,2.53,6.26,5.79s-2.62,5.79-6.25,5.84q-10.31.12-20.61,0a5.94,5.94,0,0,1-6.2-5.87c0-3.26,2.59-5.62,6.29-5.75,1.37-.05,2.75,0,4.26,0V118.65H216.51c0,.54-.14,1-.14,1.43,0,11.29,0,22.59,0,33.88,0,1.51.46,2.09,2,2a20.78,20.78,0,0,1,3.7.1,5.83,5.83,0,0,1,5,5.26,6,6,0,0,1-4.2,6,5.84,5.84,0,0,1-1.59.28c-7.1,0-14.21.08-21.31,0a7.28,7.28,0,0,1-3.6-1.31,5.22,5.22,0,0,1-2.07-5.93,5.41,5.41,0,0,1,4.7-4.2,52.3,52.3,0,0,1,5.61,0V118.47c-1.79,0-3.53-.06-5.27,0a24.76,24.76,0,0,1-25.47-20.69c0-.21-.22-.39-.33-.59ZM292.2,81.19H200.52c-1.31,0-2.63,0-3.93.17a12.67,12.67,0,0,0-10.07,18.27c2.75,5.38,7.44,7.21,13.21,7.2q92.37,0,184.75,0a24.77,24.77,0,0,0,3.22-.22A12.66,12.66,0,0,0,397,87.22c-2.87-4.58-7.26-6.07-12.47-6.06Q338.39,81.23,292.2,81.19ZM242.37-6.62c-.56-1.11-.9-1.8-1.27-2.47q-8.53-15.53-17.09-31a28.59,28.59,0,0,0-1.68-2.76,11.67,11.67,0,0,0-17.81-1.43C200.64-40.43,200-35,203-29.59q8.86,16.26,17.84,32.47c.2.38.47.72.83,1.26A28.46,28.46,0,0,1,242.37-6.62Zm8.43,76V48.12c-9.8,2.25-18.46.2-26-6.47L205.09,69.42Zm8.91-48.14a16.13,16.13,0,1,0-16.07,16.08A16.24,16.24,0,0,0,259.71,21.28Zm-26.47-69c.42.87.72,1.55,1.07,2.2q3.8,6.89,7.6,13.77c1.34,2.42,2.16,5.8,4.22,7s5.53.44,8.38.46c4.59,0,9.19,0,13.89,0V-47.72Zm47,14.82h28.39v-7.65H280.26Zm52,49.32H318.57V30.08h13.71ZM362,69.18h13.64V55.51H362ZM343.77,8.57c.89-1.77,1.59-3.13,2.27-4.51,1.43-2.89,1-3.55-2.12-3.55q-18.72,0-37.44,0c-.38,0-.77,0-1.15,0-1.58.11-2.06,1-1.43,2.36.89,1.93,1.9,3.79,3.06,6.07,1.49-3.73,4.23-4.44,7.44-4.42q11.09.08,22.18,0C339.63,4.53,342.24,5.23,343.77,8.57ZM328-36.76a3.94,3.94,0,0,0-4-3.92,3.83,3.83,0,0,0-3.84,3.77,3.92,3.92,0,0,0,3.8,4.07A4.06,4.06,0,0,0,328-36.76Z" transform="translate(-173.52 64.77)"/><path class="cls-1" d="M292.2,81.19q46.19,0,92.37,0c5.21,0,9.6,1.48,12.47,6.06a12.66,12.66,0,0,1-9.34,19.37,24.77,24.77,0,0,1-3.22.22q-92.39,0-184.75,0c-5.77,0-10.46-1.82-13.21-7.2a12.67,12.67,0,0,1,10.07-18.27c1.3-.12,2.62-.17,3.93-.17Zm-86.77,4.35a8.45,8.45,0,1,0,8.33,8.5A8.49,8.49,0,0,0,205.43,85.54Zm69.3,16.9a8.45,8.45,0,1,0-8.51-8.34A8.5,8.5,0,0,0,274.73,102.44Zm34.67,0A8.45,8.45,0,1,0,301,94,8.52,8.52,0,0,0,309.4,102.44ZM379,85.54a8.45,8.45,0,1,0,8.44,8.38A8.49,8.49,0,0,0,379,85.54Zm-139,0a8.45,8.45,0,1,0,8.47,8.34A8.51,8.51,0,0,0,240,85.54Zm104.31,0A8.45,8.45,0,1,0,352.69,94,8.47,8.47,0,0,0,344.32,85.54Z" transform="translate(-173.52 64.77)"/><path class="cls-1" d="M242.37-6.62A28.46,28.46,0,0,0,221.63,4.14c-.36-.54-.63-.88-.83-1.26Q211.86-13.35,203-29.59c-3-5.39-2.32-10.84,1.56-14.73a11.67,11.67,0,0,1,17.81,1.43A28.59,28.59,0,0,1,224-40.13q8.56,15.53,17.09,31C241.47-8.42,241.81-7.73,242.37-6.62Z" transform="translate(-173.52 64.77)"/><path class="cls-1" d="M250.8,69.42H205.09l19.67-27.77c7.58,6.67,16.24,8.72,26,6.47Z" transform="translate(-173.52 64.77)"/><path class="cls-1" d="M259.71,21.28A16.13,16.13,0,1,1,243.55,5,16.15,16.15,0,0,1,259.71,21.28Z" transform="translate(-173.52 64.77)"/><path class="cls-1" d="M233.24-47.72H268.4v23.43c-4.7,0-9.3,0-13.89,0-2.85,0-6.22.79-8.38-.46s-2.88-4.57-4.22-7q-3.81-6.89-7.6-13.77C234-46.17,233.66-46.85,233.24-47.72Z" transform="translate(-173.52 64.77)"/><path class="cls-1" d="M280.26-32.9v-7.65h28.39v7.65Z" transform="translate(-173.52 64.77)"/><path class="cls-1" d="M332.28,16.42V30.08H318.57V16.42Z" transform="translate(-173.52 64.77)"/><path class="cls-1" d="M362,69.18V55.51h13.64V69.18Z" transform="translate(-173.52 64.77)"/><path class="cls-1" d="M343.77,8.57c-1.53-3.34-4.14-4-7.19-4q-11.1.06-22.18,0c-3.21,0-5.95.69-7.44,4.42-1.16-2.28-2.17-4.14-3.06-6.07-.63-1.36-.15-2.25,1.43-2.36.38,0,.77,0,1.15,0q18.72,0,37.44,0c3.17,0,3.55.66,2.12,3.55C345.36,5.44,344.66,6.8,343.77,8.57Z" transform="translate(-173.52 64.77)"/><path class="cls-1" d="M328-36.76a4.06,4.06,0,0,1-4,3.92,3.92,3.92,0,0,1-3.8-4.07,3.83,3.83,0,0,1,3.84-3.77A3.94,3.94,0,0,1,328-36.76Z" transform="translate(-173.52 64.77)"/><path d="M205.43,85.54a8.45,8.45,0,1,1-8.67,8.38A8.5,8.5,0,0,1,205.43,85.54Zm2.86,8.37a3,3,0,1,0-6.08.15,3.15,3.15,0,0,0,3.12,3A3.11,3.11,0,0,0,208.29,93.91Z" transform="translate(-173.52 64.77)"/><path d="M274.73,102.44a8.45,8.45,0,1,1,8.49-8.35A8.53,8.53,0,0,1,274.73,102.44Zm3-8.34a3,3,0,1,0-3.15,3A3.15,3.15,0,0,0,277.77,94.1Z" transform="translate(-173.52 64.77)"/><path d="M309.4,102.44A8.45,8.45,0,1,1,318,93.92,8.51,8.51,0,0,1,309.4,102.44Zm3.1-8.34a3,3,0,1,0-3.15,3A3.13,3.13,0,0,0,312.5,94.1Z" transform="translate(-173.52 64.77)"/><path d="M379,85.54a8.45,8.45,0,1,1-8.56,8.5A8.49,8.49,0,0,1,379,85.54Zm-.11,5.34A3.11,3.11,0,0,0,379,97.1a3.11,3.11,0,0,0-.11-6.22Z" transform="translate(-173.52 64.77)"/><path d="M240,85.54a8.45,8.45,0,1,1-8.52,8.54A8.48,8.48,0,0,1,240,85.54Zm-.1,5.34a3.11,3.11,0,1,0,3.12,3A3.12,3.12,0,0,0,239.91,90.88Z" transform="translate(-173.52 64.77)"/><path d="M344.32,85.54A8.45,8.45,0,1,1,335.7,94,8.5,8.5,0,0,1,344.32,85.54Zm2.92,8.56a3,3,0,1,0-3.16,3A3.15,3.15,0,0,0,347.24,94.1Z" transform="translate(-173.52 64.77)"/><path class="cls-1" d="M208.29,93.91a3.11,3.11,0,0,1-3,3.19,3.15,3.15,0,0,1-3.12-3,3,3,0,1,1,6.08-.15Z" transform="translate(-173.52 64.77)"/><path class="cls-1" d="M277.77,94.1a3.15,3.15,0,0,1-3.15,3,3.11,3.11,0,1,1,3.15-3Z" transform="translate(-173.52 64.77)"/><path class="cls-1" d="M312.5,94.1a3,3,0,1,1-2.93-3.21A3.1,3.1,0,0,1,312.5,94.1Z" transform="translate(-173.52 64.77)"/><path class="cls-1" d="M378.87,90.88a3.11,3.11,0,1,1-3,3.17A3.12,3.12,0,0,1,378.87,90.88Z" transform="translate(-173.52 64.77)"/><path class="cls-1" d="M239.91,90.88a3.11,3.11,0,0,1,.16,6.22,3.11,3.11,0,0,1-.16-6.22Z" transform="translate(-173.52 64.77)"/><path class="cls-1" d="M347.24,94.1a3.15,3.15,0,0,1-3.16,3,3.1,3.1,0,1,1,3.16-3Z" transform="translate(-173.52 64.77)"/></svg>