<svg id="Layer_1" data-name="Layer 1" xmlns="http://www.w3.org/2000/svg" viewBox="0 0 512 512"><defs><style>.cls-1{fill:#fff;}</style></defs><path class="cls-1" d="M-207-207H305V305H-207ZM41,208.67q57.24,0,114.48,0c4.83,0,9.72.25,14.46-.42,12.54-1.77,19.27-14.14,13.75-25.44-8.41-17.19-16.95-34.33-25.89-51.25-4.82-9.13-12.73-14.15-23.4-14.59-12.31-.51-24.61-1.46-36.92-2-3.42-.15-5.34-1.32-6.62-4.67-4-10.56-8.24-21.07-12.78-31.43-5.34-12.17-14.38-19.73-28-21.1-28.5-2.86-56.94-6.36-85.49-8.46-17.45-1.29-28.83-8.74-34-25.53-1.27-4.12-3.06-8.08-4.6-12.13C-82.67-11.07-91.17-33.83-100-56.46c-5.89-15.13-16.92-22.38-33.14-22.43q-16.24,0-32.49,0c-12.2,0-21.81,7.55-23.13,19.67a50.66,50.66,0,0,0,1.88,20Q-152,72.53-116.44,184c5.2,16.39,16.7,24.66,34,24.67Q-20.73,208.71,41,208.67ZM79,51l-.77,1C89.25,60.42,93,73,98,85c1.46,3.54,2.6,7.24,4.41,10.58.83,1.53,2.86,3.23,4.48,3.39,9.29.87,18.6,1.66,27.92,1.82,18.08.31,30.46,8.92,38.31,24.87,4.11,8.35,7.65,17.16,12.92,24.74,21.67,31.18,43.87,62,65.95,92.89,7.11,10,19.36,12.41,29.05,6,9.49-6.24,12.42-18.42,6.4-28.62q-42.67-72.24-85.58-144.34c-4.73-8-12-12.18-21.23-13.25q-28-3.24-56-6.55C109.35,54.74,94.16,52.87,79,51ZM53.12,41.69c-3.31-6.46-6-12.13-9.07-17.64Q22.92-14.42,1.62-52.8c-5.3-9.53-13.94-13.29-24.5-13.57C-45.06-67-59.88-54.32-60.35-34c-.1,4.13-.07,8.49,1.11,12.38,5.14,17,10.64,33.87,16.3,50.69.5,1.49,3,3,4.74,3.25,6.57,1,13.22,1.48,19.84,2.15ZM-67.67,223.28c0,5.57,0,10.69,0,15.82,0,11.46,4.17,15.62,15.69,15.63q61.74,0,123.48,0,31.74,0,63.49,0c7,0,12.69-2.84,13.31-8.19.89-7.61.22-15.41.22-23.25Zm59-347.79c-.5-4.63-.76-9.3-1.55-13.87-4.22-24.42-23.32-38-46.81-33.49-20.13,3.88-34.57,21.42-32.5,40.53,2.46,22.72,14.2,39.94,33.73,51.44C-40.88-71.12-26.64-75.25-17.71-90-11.34-100.62-9.11-112.29-8.66-124.51Z" transform="translate(207 207)"/><path d="M41,208.68q-61.74,0-123.48,0c-17.27,0-28.77-8.28-34-24.67Q-151.79,72.48-186.86-39.16a50.66,50.66,0,0,1-1.88-20c1.32-12.12,10.93-19.64,23.13-19.67q16.25,0,32.49,0c16.22,0,27.25,7.3,33.14,22.43C-91.17-33.83-82.67-11.07-74,11.62c1.54,4.05,3.33,8,4.6,12.13,5.19,16.79,16.57,24.24,34,25.53,28.55,2.1,57,5.6,85.49,8.46,13.64,1.37,22.68,8.93,28,21.1,4.54,10.36,8.74,20.87,12.78,31.43,1.28,3.35,3.2,4.52,6.62,4.67,12.31.56,24.61,1.51,36.92,2,10.67.44,18.58,5.46,23.4,14.59,8.94,16.92,17.48,34.06,25.89,51.25,5.52,11.3-1.21,23.67-13.75,25.44-4.74.67-9.63.42-14.46.42Q98.25,208.71,41,208.68Z" transform="translate(207 207)"/><path d="M79,51c15.19,1.84,30.38,3.71,45.57,5.51q28,3.33,56,6.55c9.19,1.07,16.5,5.3,21.23,13.25q42.88,72.1,85.58,144.34c6,10.2,3.09,22.38-6.4,28.62-9.69,6.38-21.94,3.93-29.05-6-22.08-30.9-44.28-61.71-65.95-92.89-5.27-7.58-8.81-16.39-12.92-24.74-7.85-16-20.23-24.56-38.31-24.87-9.32-.16-18.63-1-27.92-1.82-1.62-.16-3.65-1.86-4.48-3.39-1.81-3.34-3-7-4.41-10.58C93,73,89.25,60.42,78.2,52Z" transform="translate(207 207)"/><path d="M53.12,41.69l-71.48-7.23C-25,33.79-31.63,33.3-38.2,32.31c-1.75-.27-4.24-1.76-4.74-3.25C-48.6,12.24-54.1-4.64-59.24-21.63c-1.18-3.89-1.21-8.25-1.11-12.38.47-20.31,15.29-33,37.47-32.36,10.56.28,19.2,4,24.5,13.57Q23-14.43,44.05,24.05C47.08,29.56,49.81,35.23,53.12,41.69Z" transform="translate(207 207)"/><path d="M-67.67,223.28H148.52c0,7.84.67,15.64-.22,23.25-.62,5.35-6.29,8.17-13.31,8.19q-31.74.08-63.49,0-61.74,0-123.48,0c-11.52,0-15.65-4.17-15.69-15.63C-67.69,234-67.67,228.85-67.67,223.28Z" transform="translate(207 207)"/><path d="M-8.66-124.51c-.45,12.22-2.68,23.89-9,34.46-8.93,14.8-23.17,18.93-38.08,10.15-19.53-11.5-31.27-28.72-33.73-51.44C-91.59-150.45-77.15-168-57-171.87c23.49-4.54,42.59,9.07,46.81,33.49C-9.42-133.81-9.16-129.14-8.66-124.51Z" transform="translate(207 207)"/></svg>