<svg id="Layer_1" data-name="Layer 1" xmlns="http://www.w3.org/2000/svg" viewBox="0 0 225 225"><defs><style>.cls-1{fill:#fff;}</style></defs><path class="cls-1" d="M161,161H-64V-64H161ZM93.89-10.91V48.58q0,45.21,0,90.44c0,6.59,1.66,8.22,8.28,8.27,4.66,0,9.33,0,14,0,7.64,0,9-1.35,9-9.06q0-71.44,0-142.9v-6.24c4.63,0,8.63.28,12.55-.13a6.72,6.72,0,0,0,4.61-2.89c.62-1.15,0-3.77-1-4.85-9.27-10-18.71-19.9-28.17-29.75-2.16-2.24-4.8-2.52-7-.19C96.62-38.89,87.16-29,77.9-19a6,6,0,0,0-1,5.33c.62,1.36,3,2.48,4.7,2.65C85.39-10.64,89.23-10.91,93.89-10.91Zm-9.4,91.44c0-19.82,0-39.64,0-59.46,0-6.72-1.59-8.22-8.29-8.25-4.66,0-9.32,0-14,0-7.55,0-9.07,1.51-9.07,9q0,43.22,0,86.45c0,10.49-.06,21,0,31.48,0,5.53,2,7.43,7.57,7.52,5,.07,10,0,15,0,7.3,0,8.77-1.46,8.78-8.8Q84.52,109.51,84.49,80.53ZM43.87,95c0-14.67,0-29.34,0-44,0-5.58-2-7.56-7.51-7.67s-11-.12-16.5,0c-5.29.11-7.2,2-7.3,7.34-.12,6.83,0,13.67,0,20.51q0,34,0,68c0,6.25,1.69,8,7.49,8.09,5,.07,10,0,15,0,7.2,0,8.84-1.62,8.85-8.77Q43.9,116.77,43.87,95ZM3.11,110.83c0-9.83.05-19.66,0-29.49C3,76,1.08,74-4.09,74q-8.49-.13-17,0c-4.94.07-7,2.07-7,7q-.07,29.73,0,59.48c0,4.91,2,6.76,7.11,6.85,5.33.09,10.67.06,16,0,6.3-.05,8.05-1.77,8.08-8C3.14,129.83,3.11,120.33,3.11,110.83Z" transform="translate(64 64)"/><path d="M93.89-10.91c-4.66,0-8.5.27-12.28-.12-1.71-.17-4.08-1.29-4.7-2.65a6,6,0,0,1,1-5.33c9.26-10,18.72-19.88,28.21-29.71,2.25-2.33,4.89-2.05,7,.19,9.46,9.85,18.9,19.72,28.17,29.75,1,1.08,1.58,3.7,1,4.85A6.72,6.72,0,0,1,137.68-11c-3.92.41-7.92.13-12.55.13v6.24q0,71.45,0,142.9c0,7.71-1.31,9-9,9.06-4.66,0-9.33,0-14,0-6.62,0-8.28-1.68-8.28-8.27q0-45.23,0-90.44V-10.91Z" transform="translate(64 64)"/><path d="M84.49,80.53q0,29,0,58c0,7.34-1.48,8.77-8.78,8.8-5,0-10,.06-15,0-5.57-.09-7.53-2-7.57-7.52-.08-10.5,0-21,0-31.48q0-43.23,0-86.45c0-7.5,1.52-9,9.07-9,4.67,0,9.33,0,14,0,6.7,0,8.27,1.53,8.29,8.25C84.52,40.89,84.49,60.71,84.49,80.53Z" transform="translate(64 64)"/><path d="M43.87,95q0,21.76,0,43.51c0,7.15-1.65,8.75-8.85,8.77-5,0-10,.06-15,0-5.8-.09-7.47-1.84-7.49-8.09q-.06-34,0-68c0-6.84-.08-13.68,0-20.51.1-5.34,2-7.23,7.3-7.34,5.49-.12,11-.12,16.5,0s7.49,2.09,7.51,7.67C43.91,65.67,43.87,80.34,43.87,95Z" transform="translate(64 64)"/><path d="M3.11,110.83c0,9.5,0,19,0,28.49,0,6.19-1.78,7.91-8.08,8-5.33.05-10.67.08-16,0-5.1-.09-7.1-1.94-7.11-6.85q-.11-29.74,0-59.48c0-4.91,2.08-6.91,7-7q8.49-.13,17,0C1.08,74,3,76,3.08,81.34,3.16,91.17,3.11,101,3.11,110.83Z" transform="translate(64 64)"/></svg>