<svg id="Layer_1" data-name="Layer 1" xmlns="http://www.w3.org/2000/svg" viewBox="0 0 400 400"><defs><style>.cls-1{fill:#fff;}</style></defs><path class="cls-1" d="M-151-151H249V249H-151ZM116.85,54.48c-.08-1.19-.07-2-.2-2.71C107.88-.24,99-52.25,90.4-104.29c-1.78-10.75-7.17-18.58-16.72-23.29-16.51-8.14-33.16-7.89-49.37.83-8.53,4.58-13.56,12-15.21,21.66Q-3.26-33-15.62,39.08c-.9,5.25-1.7,10.51-2.78,17.19C13.29,12.39,85.85,11.88,116.85,54.48ZM48,34.34A74.15,74.15,0,0,0,3.12,48.85c-27.2,20.42-27.17,54.89,0,75.34,26.17,19.7,66.27,19.85,92.62.35,28-20.7,27.91-55.71-.18-76.21C82.9,39.09,68.48,35.12,48,34.34ZM-30.7,130.9a64.91,64.91,0,0,0-37.65,12.65c-24.52,18.11-24.62,48.87-.28,67.19,23.26,17.51,58.89,17.75,82.39.56,25.71-18.81,25.2-51-1.14-69C.67,134.19-12.73,130.9-30.7,130.9Zm157.83,0c-16.83.07-31.86,4.09-44.6,14.7-21.05,17.54-21.07,45.47-.16,63.18,24.21,20.5,64.6,20.3,88.66-.45,20.07-17.3,20.26-44.4.31-61.85C158.56,135.29,143.28,131.05,127.13,130.89ZM-12.17-21.46a45.51,45.51,0,0,0-24.16,5.19,26.06,26.06,0,0,0-14,17.75c-11.85,48-24,95.81-36.08,143.7-.24.95-.28,1.95-.52,3.76,17.19-21,38.78-29.6,64.75-28.28A50.06,50.06,0,0,1-29.6,86.3c3.3-23,7.4-46,11.15-69C-16.36,4.58-14.31-8.19-12.17-21.46ZM120.48,120.77c26.34-1.71,48.1,6.77,65.33,27.34a11.36,11.36,0,0,0,0-1.92q-18-73.66-36-147.31c-3.28-13.31-23.32-24-36.89-19.91.12,1.44.14,2.94.38,4.4C118,12.59,122.62,41.84,127.74,71,130.83,88.63,129.78,105.39,120.48,120.77Z" transform="translate(151 151)"/><path d="M116.85,54.48c-31-42.6-103.56-42.09-135.25,1.79,1.08-6.68,1.88-11.94,2.78-17.19Q-3.27-33,9.1-105.09c1.65-9.63,6.68-17.08,15.21-21.66,16.21-8.72,32.86-9,49.37-.83,9.55,4.71,14.94,12.54,16.72,23.29C99-52.25,107.88-.24,116.65,51.77,116.78,52.52,116.77,53.29,116.85,54.48Z" transform="translate(151 151)"/><path d="M48,34.34c20.5.78,34.92,4.75,47.58,14,28.09,20.5,28.15,55.51.18,76.21-26.35,19.5-66.45,19.35-92.62-.35-27.17-20.45-27.2-54.92,0-75.34A74.15,74.15,0,0,1,48,34.34Z" transform="translate(151 151)"/><path d="M-30.7,130.9c18,0,31.37,3.29,43.32,11.45,26.34,18,26.85,50.14,1.14,69-23.5,17.19-59.13,16.95-82.39-.56-24.34-18.32-24.24-49.08.28-67.19A64.91,64.91,0,0,1-30.7,130.9Z" transform="translate(151 151)"/><path d="M127.13,130.89c16.15.16,31.43,4.4,44.21,15.58,19.95,17.45,19.76,44.55-.31,61.85-24.06,20.75-64.45,21-88.66.45-20.91-17.71-20.89-45.64.16-63.18C95.27,135,110.3,131,127.13,130.89Z" transform="translate(151 151)"/><path d="M-12.17-21.46c-2.14,13.27-4.19,26-6.28,38.8-3.75,23-7.85,45.92-11.15,69a50.06,50.06,0,0,0,7.44,34.36c-26-1.32-47.56,7.26-64.75,28.28.24-1.81.28-2.81.52-3.76,12-47.89,24.23-95.75,36.08-143.7a26.06,26.06,0,0,1,14-17.75A45.51,45.51,0,0,1-12.17-21.46Z" transform="translate(151 151)"/><path d="M120.48,120.77c9.3-15.38,10.35-32.14,7.26-49.76-5.12-29.17-9.7-58.42-14.48-87.64-.24-1.46-.26-3-.38-4.4,13.57-4.12,33.61,6.6,36.89,19.91q18.14,73.62,36,147.31a11.36,11.36,0,0,1,0,1.92C168.58,127.54,146.82,119.06,120.48,120.77Z" transform="translate(151 151)"/></svg>