<svg id="Layer_1" data-name="Layer 1" xmlns="http://www.w3.org/2000/svg" viewBox="0 0 400 400"><defs><style>.cls-1{fill:#fff;}</style></defs><path class="cls-1" d="M249,249H-151V-151H249ZM28.16,139.9C23,170.72,17.94,200.63,12.9,230.63h72c-5.1-30.37-10.12-60.29-15.24-90.73h6.26c15.33,0,30.67.13,46,0a72.77,72.77,0,0,0,67.81-47.31A71.48,71.48,0,0,0,169.4,13.05C164.15,8.53,158.07,5,152,.69c8.55-17.5,8.3-35.32-2.05-52.44C139.47-69,123.44-77.28,103.64-78.38c-2.09-35-28.17-53.53-53.11-54.41a52,52,0,0,0-34.46,11.22c-14,10.86-21,25.47-21.65,43-40,1.2-66.81,41.75-48.68,79.59-.07.14-.1.35-.21.42-.69.47-1.37.94-2.09,1.34C-81.28,16.37-94.81,37-96.41,65.38c-2,35,27.11,70.17,62.09,73.57,13.55,1.32,27.29.73,40.94.93C13.59,140,20.56,139.9,28.16,139.9Z" transform="translate(151 151)"/><path d="M28.16,139.9c-7.6,0-14.57.09-21.54,0-13.65-.2-27.39.39-40.94-.93-35-3.4-64.07-38.54-62.09-73.57,1.6-28.43,15.13-49,39.85-62.59.72-.4,1.4-.87,2.09-1.34.11-.07.14-.28.21-.42C-72.39-36.81-45.62-77.36-5.58-78.56c.68-17.54,7.64-32.15,21.65-43a52,52,0,0,1,34.46-11.22c24.94.88,51,19.45,53.11,54.41,19.8,1.1,35.83,9.34,46.28,26.63C160.27-34.63,160.52-16.81,152,.69c6.1,4.28,12.18,7.84,17.43,12.36a71.48,71.48,0,0,1,20.35,79.51,72.77,72.77,0,0,1-67.81,47.31c-15.33.16-30.67,0-46,0H69.68c5.12,30.44,10.14,60.36,15.24,90.73h-72C17.94,200.63,23,170.72,28.16,139.9Z" transform="translate(151 151)"/></svg>