<svg id="Layer_1" data-name="Layer 1" xmlns="http://www.w3.org/2000/svg" viewBox="0 0 488 431"><defs><style>.cls-1{fill:#fff;}</style></defs><path class="cls-1" d="M293,264H-195V-167H293ZM8.21-124.19v82.08c2.57,0,4.87.19,7.13,0,3.49-.36,5.51.74,6.59,4.32,1.28,4.29,3.56,8.3,4.72,12.61a13.19,13.19,0,0,1-.28,7.92C22.51-8.1,18.67,1.18,13.84,9.88c-4.48,8.06-5.48,15.39.26,23,.15.19,0,.62-.1,1.45l-118.79,62c-5.86-3.19-10.46-6.89-15.68-8.3-15.86-4.3-30.49,7.3-31.09,24.12-.27,7.44-.05,14.9-.05,22.79l-15.33.81v94H270.84V135.48c-6.1,0-11.75-.2-17.38.07-4,.19-5.72-.91-5.44-5.26.36-5.81.25-11.67,0-17.49-.37-10.73-5.14-18.89-15.09-23.36-9.79-4.39-19-2.68-26.89,4.38-2.64,2.36-4.46,2.33-7.36.8q-48.34-25.54-96.81-50.87c-7.74-4.07-15.44-8.21-22.82-12.14,2-6.05,3.81-11.44,6-18.06C78.9,16.19,74,17.92,69.48,20.29c-4.71,2.46-9,2.84-13.27-.61-4.51-3.6-9.05-4-13.87-.33-1,.75-2.87.32-4.33.43.39-1.53.35-3.38,1.24-4.53,6.2-8,12.43-16.08,19-23.83a19.17,19.17,0,0,0,4.83-13.16c0-6.59.67-13.19,1.1-20.44H78.64v-82Z" transform="translate(195 167)"/><path d="M8.21-124.19H78.64v82H64.17c-.43,7.25-1.11,13.85-1.1,20.44A19.17,19.17,0,0,1,58.24-8.58C51.68-.83,45.45,7.2,39.25,15.25c-.89,1.15-.85,3-1.24,4.53,1.46-.11,3.35.32,4.33-.43,4.82-3.65,9.36-3.27,13.87.33,4.31,3.45,8.56,3.07,13.27.61,4.55-2.37,9.42-4.1,15.64-6.74-2.21,6.62-4,12-6,18.06,7.38,3.93,15.08,8.07,22.82,12.14q48.4,25.43,96.81,50.87c2.9,1.53,4.72,1.56,7.36-.8,7.9-7.06,17.1-8.77,26.89-4.38,10,4.47,14.72,12.63,15.09,23.36.2,5.82.31,11.68,0,17.49-.28,4.35,1.43,5.45,5.44,5.26,5.63-.27,11.28-.07,17.38-.07V229.8H-166.94v-94l15.33-.81c0-7.89-.22-15.35.05-22.79.6-16.82,15.23-28.42,31.09-24.12,5.22,1.41,9.82,5.11,15.68,8.3L14,34.34c.07-.83.25-1.26.1-1.45-5.74-7.62-4.74-14.95-.26-23,4.83-8.7,8.67-18,12.53-27.18a13.19,13.19,0,0,0,.28-7.92c-1.16-4.31-3.44-8.32-4.72-12.61-1.08-3.58-3.1-4.68-6.59-4.32-2.26.23-4.56,0-7.13,0ZM-101.16,135.34h10.68q37.49-.06,75-.11c26.16,0,52.31.08,78.47.1q38.49,0,77,0c17.83,0,35.65,0,53.48.09,3.1,0,4.54-.85,4.4-4.26-.24-5.66-.22-11.34,0-17,.12-3-1-4.46-3.56-5.79q-61.5-32.2-123-64.46a7.19,7.19,0,0,0-5.77,0c-11.81,6.24-23.73,6.74-36.11,1.84a8.56,8.56,0,0,0-6.32.14Q-37.68,77.32-98.25,109.12c-1.24.65-2.74,2.29-2.78,3.51C-101.29,119.93-101.16,127.24-101.16,135.34ZM98.27,208.27a25.52,25.52,0,0,0,26.33-25.53c.16-13.56-11.22-25.32-24.81-25.65a26,26,0,0,0-26.64,25.4A25.63,25.63,0,0,0,98.27,208.27Zm103.41.06c14.06,0,25.68-11.45,25.68-25.24a25.67,25.67,0,1,0-51.34-.45A25.41,25.41,0,0,0,201.68,208.33ZM-29.39,182.41A25.25,25.25,0,0,0-4,208.26a25.51,25.51,0,0,0,25.86-25.44A25.8,25.8,0,0,0-3.89,157.1,25.55,25.55,0,0,0-29.39,182.41Zm-102.8.18a25.47,25.47,0,0,0,25.08,25.71A25.38,25.38,0,0,0-81,183.65a25.52,25.52,0,0,0-24.8-26.54A25.66,25.66,0,0,0-132.19,182.59Zm16.06-47.06V120c-7.67-1-6.57-8.25-10.34-11.84l6.11-4.24c-8-4.73-16.28-.87-17,7.71a199.37,199.37,0,0,0-.11,20.89c0,1,1.45,2.86,2.29,2.89C-128.9,135.64-122.63,135.53-116.13,135.53Zm349.78-.34c0-8.44.57-16.59-.16-24.62-.72-7.85-9.38-11.27-16.56-6.75l8.65,5.08c-2.28,4.28-4.35,8.18-6.45,12.11l-6.8-2.8v17Z" transform="translate(195 167)"/><path class="cls-1" d="M-101.16,135.34c0-8.1-.13-15.41.13-22.71,0-1.22,1.54-2.86,2.78-3.51q60.6-31.77,121.34-63.24a8.56,8.56,0,0,1,6.32-.14c12.38,4.9,24.3,4.4,36.11-1.84a7.19,7.19,0,0,1,5.77,0q61.53,32.12,123,64.46c2.54,1.33,3.68,2.84,3.56,5.79-.22,5.66-.24,11.34,0,17,.14,3.41-1.3,4.27-4.4,4.26-17.83-.1-35.65-.08-53.48-.09q-38.49,0-77,0c-26.16,0-52.31-.1-78.47-.1q-37.48,0-75,.11Z" transform="translate(195 167)"/><path class="cls-1" d="M98.27,208.27a25.63,25.63,0,0,1-25.12-25.78,26,26,0,0,1,26.64-25.4c13.59.33,25,12.09,24.81,25.65A25.52,25.52,0,0,1,98.27,208.27Z" transform="translate(195 167)"/><path class="cls-1" d="M201.68,208.33a25.62,25.62,0,0,1-.29-51.24,25.69,25.69,0,0,1,26,26C227.36,196.88,215.74,208.3,201.68,208.33Z" transform="translate(195 167)"/><path class="cls-1" d="M-29.39,182.41A25.55,25.55,0,0,1-3.89,157.1a25.8,25.8,0,0,1,25.72,25.72A25.51,25.51,0,0,1-4,208.26,25.25,25.25,0,0,1-29.39,182.41Z" transform="translate(195 167)"/><path class="cls-1" d="M-132.19,182.59a25.66,25.66,0,0,1,26.39-25.48A25.52,25.52,0,0,1-81,183.65a25.38,25.38,0,0,1-26.11,24.65A25.47,25.47,0,0,1-132.19,182.59Z" transform="translate(195 167)"/><path class="cls-1" d="M-116.13,135.53c-6.5,0-12.77.11-19-.13-.84,0-2.26-1.87-2.29-2.89a199.37,199.37,0,0,1,.11-20.89c.69-8.58,9-12.44,17-7.71l-6.11,4.24c3.77,3.59,2.67,10.87,10.34,11.84Z" transform="translate(195 167)"/><path class="cls-1" d="M233.65,135.19H212.33v-17l6.8,2.8c2.1-3.93,4.17-7.83,6.45-12.11l-8.65-5.08c7.18-4.52,15.84-1.1,16.56,6.75C234.22,118.6,233.65,126.75,233.65,135.19Z" transform="translate(195 167)"/></svg>