<svg id="Layer_1" data-name="Layer 1" xmlns="http://www.w3.org/2000/svg" viewBox="0 0 400 400"><defs><style>.cls-1{fill:#fff;}</style></defs><path class="cls-1" d="M249,249H-151V-151H249ZM99.8-50.38c0-10.59,0-20.71,0-30.83-.07-15.42-8.41-24.38-23.83-24.7-17.5-.36-35-.43-52.52,0C10.52-105.57-2-98.75-1.06-80.73-.53-70.8-1-60.83-1-50.3H-49V191.6H148.57v-242Zm-168-.42c-9.44,0-18.45-.58-27.35.11-19.66,1.52-33.25,14.58-34.7,34.17-1,14.1-.45,28.32-.47,42.48q-.06,62.76,0,125.51c0,18.78,7.92,31.77,22.92,37.33,12.9,4.77,26.25,1.92,39.61,2.65ZM167.42,191.45c8.87,0,17.5.21,26.11,0,20.83-.61,35.74-15.65,35.79-36.49q.19-84.69,0-169.39c0-16.2-10.3-30.87-26.11-34.3-11.5-2.5-23.67-1.91-35.8-2.71Z" transform="translate(151 151)"/><path d="M99.8-50.38h48.77v242H-49V-50.3H-1c0-10.53.44-20.5-.09-30.43-1-18,11.58-24.84,24.5-25.17,17.5-.44,35-.37,52.52,0,15.42.32,23.76,9.28,23.83,24.7C99.84-71.09,99.8-61,99.8-50.38ZM16.61-86.65v35.94h65V-86.65Z" transform="translate(151 151)"/><path d="M-68.2-50.8V191.45c-13.36-.73-26.71,2.12-39.61-2.65-15-5.56-22.91-18.55-22.92-37.33q0-62.76,0-125.51c0-14.16-.57-28.38.47-42.48,1.45-19.59,15-32.65,34.7-34.17C-86.65-51.38-77.64-50.8-68.2-50.8Z" transform="translate(151 151)"/><path d="M167.42,191.45V-51.48c12.13.8,24.3.21,35.8,2.71,15.81,3.43,26.09,18.1,26.11,34.3q.15,84.69,0,169.39c0,20.84-15,35.88-35.79,36.49C184.92,191.66,176.29,191.45,167.42,191.45Z" transform="translate(151 151)"/><path class="cls-1" d="M16.61-86.65h65v35.94H16.61Z" transform="translate(151 151)"/></svg>