<svg id="Layer_1" data-name="Layer 1" xmlns="http://www.w3.org/2000/svg" viewBox="0 0 360 360"><defs><style>.cls-1{fill:#fff;}</style></defs><path class="cls-1" d="M-131,229V-131H229V229Zm75.62-52.16c6.36.73,11.73,1.57,17.13,1.94,38.25,2.6,76.52,5,114.76,7.7,18.92,1.33,36.76-2.06,52.44-12.75,28-19.07,55.49-38.75,83.11-58.3A15.09,15.09,0,0,0,216.22,95a15.73,15.73,0,0,0-20.56-5.86c-1.64.81-3.17,1.83-4.74,2.77Q155.81,113,120.71,134.25c-6.7,4.06-13.84,6.59-21.72,6.65q-26.76.19-53.53.3c-1,0-2.28.31-2.94-.18-1.43-1.08-3.53-2.6-3.51-3.91s2.07-2.91,3.54-3.92c.81-.56,2.27-.18,3.44-.2l52-1c7.91-.15,13.7-5.43,14-12.72.26-6.94-5.19-12.81-12.77-13.47-8.64-.75-17.39-.69-25.91-2.08C56.89,101.05,40,99.44,24.41,94.07c-26.68-9.19-52.87-13.4-80.18-4a4.86,4.86,0,0,1-4.22-1c-4.27-4.55-9.48-5.81-15.45-5.45-8.82.54-17.64.9-26.47,1.3-11.06.5-18,7.72-17.54,18.76q1.44,32.22,3.32,64.41c.61,10.53,7.8,17.15,18.37,17,8.83-.15,17.65-.9,26.48-1C-64.51,183.88-58.82,182-55.38,176.84Zm218.83-185c0-1.83.05-3.66,0-5.49-.19-6.19-2.93-10.5-8.95-10.66-10.42-.29-15.47-5.3-18.31-14.9-1.21-4.08-1.59-6.67,1-10.22,9.59-13.37,9.42-14-2-25.42-7-7-10.94-7.65-18.56-1.52-5.61,4.51-10.24,5.18-17.31,2.29s-10.21-6.53-11-14c-1-9.89-4.17-12-14.19-12-15.72,0-16.68.67-19.16,16.28-.67,4.18-2.51,6-6.39,8.09-9,4.92-16.37,4.74-23.93-2.53-3.4-3.28-8.23-3.08-12,0A76,76,0,0,0,2.36-68.08c-2.94,3.52-2.92,7.69-.55,11.67a28.2,28.2,0,0,0,3.46,4.89c4.06,4.33,5.53,8.7,1.56,14A16.26,16.26,0,0,0,4.26-31c-.66,3.34-2.5,4.61-5.74,5-19.37,2.42-18.19,5.69-18,22.75.08,6.09,3.1,10.45,9.06,10.64,10.07.32,15.3,4.76,18.08,14.37C9,26.15,9.47,29,6.63,32.84c-9.21,12.48-9,13.66,1.9,24.68,7.34,7.44,11.14,8.07,19.34,1.54,5.34-4.26,9.57-4.92,16.34-2.22,7.53,3,11.31,6.68,11.49,14.69.12,5.11,2.23,10.18,7.78,10.86,7.23.89,15,3,21.55-2.49,1.5-1.26,2.26-3.63,2.89-5.63a25.88,25.88,0,0,0,1.21-6.87c.17-5,3-6.66,7.22-9,8.94-5,15.67-3.78,23,2.76,4.24,3.82,9.3,2.85,13.55-1,1.47-1.35,2.84-2.82,4.25-4.24,8.72-8.73,9.23-11.27,1.55-21.17-3.88-5-3.5-8.78-1.63-14.61,2.79-8.72,7.69-11.89,16.28-12.44,7.18-.45,10-4.47,10.13-11.76C163.46-5.47,163.44-6.8,163.45-8.14ZM182.65,85c-4.88-4-9.74-4.94-14.53-2.56-16.05,8-31.92,16.27-47.53,24.27,1.13,5,2.14,9.39,3.23,14.19ZM99.38,94.59c10,5.8,19.28,3.64,28.32-2.41,3-2,6.53-3.3,9.8-5,4.86-2.44,9.71-4.91,15-7.58-4.78-3.22-9.06-2.59-13.39-.9Q121,85.86,102.82,93C101.53,93.48,100.3,94.15,99.38,94.59Z" transform="translate(131 131)"/><path d="M-55.38,176.84c-3.44,5.15-9.13,7-15.9,7.15-8.83.15-17.65.9-26.48,1-10.57.18-17.76-6.44-18.37-17q-1.84-32.19-3.32-64.41c-.5-11,6.48-18.26,17.54-18.76,8.83-.4,17.65-.76,26.47-1.3,6-.36,11.18.9,15.45,5.45a4.86,4.86,0,0,0,4.22,1c27.31-9.35,53.5-5.14,80.18,4,15.56,5.37,32.48,7,48.89,9.65,8.52,1.39,17.27,1.33,25.91,2.08,7.58.66,13,6.53,12.77,13.47-.28,7.29-6.07,12.57-14,12.72l-52,1c-1.17,0-2.63-.36-3.44.2-1.47,1-3.52,2.56-3.54,3.92s2.08,2.83,3.51,3.91c.66.49,1.94.19,2.94.18q26.76-.13,53.53-.3c7.88-.06,15-2.59,21.72-6.65Q155.78,113,190.92,91.87c1.57-.94,3.1-2,4.74-2.77A15.73,15.73,0,0,1,216.22,95a15.09,15.09,0,0,1-4.16,20.47C184.44,135,156.9,154.66,129,173.73c-15.68,10.69-33.52,14.08-52.44,12.75-38.24-2.71-76.51-5.1-114.76-7.7C-43.65,178.41-49,177.57-55.38,176.84ZM-86.73,170a9.86,9.86,0,0,0,9.82-9.78,9.94,9.94,0,0,0-9.69-9.94,10.3,10.3,0,0,0-9.93,9.84A10.05,10.05,0,0,0-86.73,170Z" transform="translate(131 131)"/><path d="M163.44-8.14c0,1.34,0,2.67,0,4-.12,7.29-2.95,11.31-10.13,11.76-8.59.55-13.49,3.72-16.28,12.44-1.87,5.83-2.25,9.62,1.63,14.61,7.68,9.9,7.17,12.44-1.55,21.17-1.41,1.42-2.78,2.89-4.25,4.24-4.25,3.89-9.31,4.86-13.55,1-7.29-6.54-14-7.77-23-2.76-4.25,2.38-7,4.07-7.22,9a25.88,25.88,0,0,1-1.21,6.87c-.63,2-1.39,4.37-2.89,5.63-6.51,5.45-14.32,3.38-21.55,2.49-5.55-.68-7.66-5.75-7.78-10.86-.18-8-4-11.69-11.49-14.69-6.77-2.7-11-2-16.34,2.22-8.2,6.53-12,5.9-19.34-1.54-10.86-11-11.11-12.2-1.9-24.68C9.47,29,9,26.15,7.69,21.73c-2.78-9.61-8-14-18.08-14.37-6-.19-9-4.55-9.06-10.64-.22-17.06-1.4-20.33,18-22.75,3.24-.4,5.08-1.67,5.74-5A16.26,16.26,0,0,1,6.83-37.5c4-5.32,2.5-9.69-1.56-14a28.2,28.2,0,0,1-3.46-4.89c-2.37-4-2.39-8.15.55-11.67A76,76,0,0,1,12.62-78.27c3.76-3.06,8.59-3.26,12,0,7.56,7.27,14.9,7.45,23.93,2.53,3.88-2.11,5.72-3.91,6.39-8.09,2.48-15.61,3.44-16.31,19.16-16.28,10,0,13.16,2.1,14.19,12,.78,7.51,3.79,11.1,11,14s11.7,2.22,17.31-2.29c7.62-6.13,11.56-5.49,18.56,1.52,11.43,11.44,11.6,12,2,25.42-2.56,3.55-2.18,6.14-1,10.22,2.84,9.6,7.89,14.61,18.31,14.9,6,.16,8.76,4.47,8.95,10.66C163.5-11.8,163.45-10,163.44-8.14ZM71.52-40.37c-18.65.72-32.25,15.21-31.44,33.52.75,17.09,15.73,31,32.75,30.31A32,32,0,0,0,104-9.92C103.4-27.13,88.56-41,71.52-40.37Z" transform="translate(131 131)"/><path d="M182.65,85l-58.83,35.9c-1.09-4.8-2.1-9.22-3.23-14.19,15.61-8,31.48-16.31,47.53-24.27C172.91,80,177.77,81,182.65,85Z" transform="translate(131 131)"/><path d="M99.38,94.59c.92-.44,2.15-1.11,3.44-1.62Q121,85.83,139.1,78.75c4.33-1.69,8.61-2.32,13.39.9-5.28,2.67-10.13,5.14-15,7.58-3.27,1.65-6.79,2.93-9.8,5C118.66,98.23,109.38,100.39,99.38,94.59Z" transform="translate(131 131)"/><path class="cls-1" d="M-86.73,170a10.05,10.05,0,0,1-9.8-9.88,10.3,10.3,0,0,1,9.93-9.84,9.94,9.94,0,0,1,9.69,9.94A9.86,9.86,0,0,1-86.73,170Z" transform="translate(131 131)"/><path class="cls-1" d="M71.52-40.37C88.56-41,103.4-27.13,104-9.92A32,32,0,0,1,72.83,23.46c-17,.65-32-13.22-32.75-30.31C39.27-25.16,52.87-39.65,71.52-40.37Z" transform="translate(131 131)"/></svg>