<svg id="Layer_1" data-name="Layer 1" xmlns="http://www.w3.org/2000/svg" viewBox="0 0 246 246"><defs><style>.cls-1{fill:#fff;}</style></defs><path class="cls-1" d="M-85-85H161V161H-85ZM12.94,0C-.13,0-12.44-.5-24.69.17-38.6.92-52.27,3.56-65.1,9.43c-10.85,5-17.34,11.92-17,25.31.81,30.27.48,60.59.11,90.88-.11,8.94,3.64,14.9,10.82,19.09a75.78,75.78,0,0,0,13.68,6.42c24.22,8.14,49.13,8.18,74.08,5.06,12.53-1.57,24.85-4.77,35.63-12,6.36-4.24,10.45-9.74,9.87-18-.37-5.36-.07-10.76-.07-16.4,14,0,27.42.61,40.72-.16,15-.86,29.64-4.12,42.88-11.89,7.65-4.49,11.32-10.62,11.24-19.91q-.51-63.13,0-126.26c.09-9.48-4.09-15.44-11.52-19.81A67,67,0,0,0,132.56-74c-24.22-8.1-49.13-8.21-74.08-5.11C46-77.58,33.64-74.4,22.85-67.23c-6.36,4.23-10.36,9.58-10,17.89.46,11.05.11,22.13.11,33.19Z" transform="translate(85 85)"/><path d="M12.94,0V-16.15c0-11.06.35-22.14-.11-33.19-.34-8.31,3.66-13.66,10-17.89C33.64-74.4,46-77.58,58.48-79.13c25-3.1,49.86-3,74.08,5.11a67,67,0,0,1,12.78,5.83c7.43,4.37,11.61,10.33,11.52,19.81q-.56,63.12,0,126.26c.08,9.29-3.59,15.42-11.24,19.91-13.24,7.77-27.86,11-42.88,11.89-13.3.77-26.68.16-40.72.16,0,5.64-.3,11,.07,16.4.58,8.25-3.51,13.75-9.87,18-10.78,7.19-23.1,10.39-35.63,12-24.95,3.12-49.86,3.08-74.08-5.06a75.78,75.78,0,0,1-13.68-6.42c-7.18-4.19-10.93-10.15-10.82-19.09.37-30.29.7-60.61-.11-90.88-.36-13.39,6.13-20.35,17-25.31C-52.27,3.56-38.6.92-24.69.17-12.44-.5-.13,0,12.94,0ZM-10.18,47.69c11.27-1.41,22.73-2,33.74-4.5,8.23-1.89,16.18-5.73,23.69-9.76,4.38-2.36,4-6.13-.18-9.09a47.63,47.63,0,0,0-10.86-5.89C15.38,10.77-6.34,10.13-28,12.39c-11.29,1.18-22.39,5-33.27,8.51-3.43,1.11-5.87,5.28-8.76,8,2.85,2.77,5.25,6.42,8.63,8.15C-45.36,45.27-27.89,46.46-10.18,47.69ZM84.51-70c-11.61,1.51-23.38,2.32-34.78,4.8-7.39,1.6-14.56,5.07-21.24,8.77-5.31,2.93-5.16,6.56-.13,10.08a45.55,45.55,0,0,0,12,6c26.44,8.54,53.32,8.79,80.14,2.49,7.66-1.8,14.9-5.86,21.93-9.63,4-2.13,3.28-6-.19-8.37a54.08,54.08,0,0,0-11.29-6.22C116-67.78,100.39-69,84.51-70ZM24.86-33.18c0,3.86.31,7.83-.08,11.72-.45,4.42,1.23,7.49,5,9.3,5,2.41,10,5,15.29,6.55C64-.14,83.54.76,103-1.52a135.74,135.74,0,0,0,29.78-7.11C146-13.37,148.41-19.74,144.7-33.09,104.83-17.74,65.05-17.68,24.86-33.18Zm-95.12,80.4c0,3.8.21,7.6,0,11.37-.31,4.5,1.28,7.87,5.29,9.78,5,2.38,10,5.06,15.28,6.55,21.91,6.17,44.22,6.4,66.55,3C27.09,76.39,37.41,74.08,46,67.67a10.88,10.88,0,0,0,4.11-6.42c.64-4.59.19-9.33.19-13.9C10.13,62.75-29.64,62.88-70.26,47.22Zm.61,33.06c-1.5,18.32-2.13,19,14.48,26.17a19.75,19.75,0,0,0,4.11,1.27c8.84,1.59,17.63,3.63,26.54,4.56,21,2.19,41.86.82,61.84-6.72,13.49-5.1,16.08-10.91,12.22-25.15C18.44,95.67-37.62,95.81-69.65,80.28Zm-.61,33.23c0,3.68.31,7.15-.07,10.53-.61,5.5,1.83,9.19,6.43,11.42a86.56,86.56,0,0,0,14.43,5.89c21.61,6,43.65,6.21,65.6,2.88,9.1-1.38,18-4.82,26.61-8.32,3.13-1.27,6.32-5.08,7.27-8.37,1.25-4.32.31-9.27.31-14C10.07,129.18-29.76,129.2-70.26,113.51ZM62.21,32.46c11.42,0,22.32,1,33-.25a199.09,199.09,0,0,0,37.39-7.55c13.23-4.2,15.82-11.24,12.07-24.54C104.7,15.35,64.81,15.28,24.56.6a7,7,0,0,0,3.17,2.7c7.36,2.88,15,5.12,22.08,8.58C57.24,15.53,62.61,21.33,62.21,32.46Zm83.2,32.82c-26.94,13.38-54.66,13-82.87,11.43V97.38a16.33,16.33,0,0,0,2.74.48c13.34,0,26.72.66,40-.23,11.65-.77,23.28-3.24,33.41-9.62,2.78-1.76,5.67-4.93,6.43-8C146.22,75.67,145.41,70.81,145.41,65.28Zm0-33c-27,12.52-54.55,13.65-82.89,11V64c2.12.39,4.23,1.14,6.33,1.1,13.54-.24,27.14,0,40.59-1.22,11.05-1,22.14-3.54,31.33-10.53a12.08,12.08,0,0,0,4.44-6.87C146,42.11,145.43,37.54,145.43,32.31Z" transform="translate(85 85)"/><path class="cls-1" d="M-10.18,47.69c-17.71-1.23-35.18-2.42-51.19-10.6-3.38-1.73-5.78-5.38-8.63-8.15,2.89-2.76,5.33-6.93,8.76-8,10.88-3.55,22-7.33,33.27-8.51,21.63-2.26,43.35-1.62,64.18,6.06a47.63,47.63,0,0,1,10.86,5.89c4.18,3,4.56,6.73.18,9.09-7.51,4-15.46,7.87-23.69,9.76C12.55,45.7,1.09,46.28-10.18,47.69Z" transform="translate(85 85)"/><path class="cls-1" d="M84.51-70c15.88,1,31.52,2.23,46.41,7.92a54.08,54.08,0,0,1,11.29,6.22c3.47,2.42,4.16,6.24.19,8.37-7,3.77-14.27,7.83-21.93,9.63-26.82,6.3-53.7,6-80.14-2.49a45.55,45.55,0,0,1-12-6c-5-3.52-5.18-7.15.13-10.08,6.68-3.7,13.85-7.17,21.24-8.77C61.13-67.69,72.9-68.5,84.51-70Z" transform="translate(85 85)"/><path class="cls-1" d="M24.86-33.18c40.19,15.5,80,15.44,119.84.09,3.71,13.35,1.25,19.72-11.91,24.46A135.74,135.74,0,0,1,103-1.52C83.54.76,64-.14,45-5.61c-5.29-1.53-10.3-4.14-15.29-6.55C26-14,24.33-17,24.78-21.46,25.17-25.35,24.86-29.32,24.86-33.18Z" transform="translate(85 85)"/><path class="cls-1" d="M-70.26,47.22c40.62,15.66,80.39,15.53,120.59.13,0,4.57.45,9.31-.19,13.9A10.88,10.88,0,0,1,46,67.67c-8.62,6.41-18.94,8.72-29.22,10.27-22.33,3.38-44.64,3.15-66.55-3C-55,73.43-60,70.75-65,68.37c-4-1.91-5.6-5.28-5.29-9.78C-70,54.82-70.26,51-70.26,47.22Z" transform="translate(85 85)"/><path class="cls-1" d="M-69.65,80.28c32,15.53,88.09,15.39,119.19.13,3.86,14.24,1.27,20-12.22,25.15-20,7.54-40.8,8.91-61.84,6.72-8.91-.93-17.7-3-26.54-4.56a19.75,19.75,0,0,1-4.11-1.27C-71.78,99.33-71.15,98.6-69.65,80.28Z" transform="translate(85 85)"/><path class="cls-1" d="M-70.26,113.51c40.5,15.69,80.33,15.67,120.58,0,0,4.72.94,9.67-.31,14-.95,3.29-4.14,7.1-7.27,8.37-8.6,3.5-17.51,6.94-26.61,8.32-21.95,3.33-44,3.08-65.6-2.88a86.56,86.56,0,0,1-14.43-5.89c-4.6-2.23-7-5.92-6.43-11.42C-69.95,120.66-70.26,117.19-70.26,113.51Z" transform="translate(85 85)"/><path class="cls-1" d="M62.21,32.46c.4-11.13-5-16.93-12.4-20.58C42.75,8.42,35.09,6.18,27.73,3.3A7,7,0,0,1,24.56.6C64.81,15.28,104.7,15.35,144.63.12c3.75,13.3,1.16,20.34-12.07,24.54a199.09,199.09,0,0,1-37.39,7.55C84.53,33.43,73.63,32.46,62.21,32.46Z" transform="translate(85 85)"/><path class="cls-1" d="M145.41,65.28c0,5.53.81,10.39-.28,14.76-.76,3-3.65,6.21-6.43,8-10.13,6.38-21.76,8.85-33.41,9.62-13.29.89-26.67.24-40,.23a16.33,16.33,0,0,1-2.74-.48V76.71C90.75,78.29,118.47,78.66,145.41,65.28Z" transform="translate(85 85)"/><path class="cls-1" d="M145.43,32.31c0,5.23.52,9.8-.2,14.16a12.08,12.08,0,0,1-4.44,6.87c-9.19,7-20.28,9.48-31.33,10.53-13.45,1.27-27,1-40.59,1.22-2.1,0-4.21-.71-6.33-1.1V43.33C90.88,46,118.42,44.83,145.43,32.31Z" transform="translate(85 85)"/></svg>